<?xml version="1.0" encoding="utf-8"?>
<svg viewBox="0 0 500 500" xmlns="http://www.w3.org/2000/svg">
  <path style="fill: transparent; mix-blend-mode: source-over; fill-opacity: 1; fill-rule: nonzero; vector-effect: non-scaling-stroke;" d="M 161.5 190.5 L 338.5 190.5 L 338.5 308.5 L 161.5 308.5 L 161.5 190.5 Z"/>
  <g style="mix-blend-mode: source-over;" transform="matrix(0.6617290377616883, 0, 0, 0.6617290377616883, 0.000059000008491238987, 80.88911096918389)">
    <g clip-path="url(#a)" style="">
      <path d="M0 0h755.596v511.118H0z" style="fill: #000; fill-opacity: 0;"/>
      <path d="M249.2 203.166c-23.404 13.98-37.001 33.2-46.049 55.355-9.048 22.156-11.884 53.84-8.238 77.581 3.647 23.741 9.443 49.17 30.117 64.865 20.675 15.695 52.644 25.722 93.932 29.304 41.287 3.582 115.018.176 153.794-7.813 38.775-7.99 60.54-20.712 78.858-40.124 18.317-19.412 32.025-48.94 31.043-76.348-.981-27.408-18.325-67.362-36.934-88.101-18.608-20.74-41.024-29.13-74.715-36.336-33.692-7.207-90.465-10.507-127.433-6.904-36.968 3.603-70.97 14.542-94.375 28.521z" style="fill: #ff0000;"/>
      <path d="M496.415 383.028c-1.426-6.596 35.597-1.264 49.643 4.734s28.209 16.548 34.635 31.255c6.427 14.707 8.27 55.602 3.924 56.988-4.346 1.387-15.298-33.173-29.998-48.67-14.7-15.496-56.777-37.712-58.204-44.307zM529.902 363.672c-2.42-5.38 34.897-4.359 49.665-.648 14.768 3.71 30.35 11.214 38.944 22.911 8.595 11.697 16.693 45.707 12.622 47.269-4.07 1.562-20.176-26.309-37.048-37.897-16.872-11.59-61.763-26.255-64.183-31.635zM560 333.85c-2.237-4.584 24.794-7.915 35.793-6.247 11 1.669 22.932 6.67 30.202 16.256 7.271 9.585 16.218 39.383 13.422 41.258-2.796 1.875-16.964-21.464-30.2-30.009-13.236-8.544-46.98-16.674-49.217-21.258zM295.55 375.38c-.443-6.754-36.564 9.652-49.126 19.684-12.562 10.032-23.934 24.46-26.244 40.507-2.31 16.048 7.564 55.78 12.382 55.781 4.818.002 6.027-36.443 16.525-55.772 10.499-19.328 46.907-53.448 46.464-60.2zM255.934 367.06c.915-5.892-36.742 6.476-50.695 14.537-13.954 8.061-27.644 20.004-33.024 33.83-5.38 13.826-3.846 48.873.743 49.127 4.59.253 12.961-31.357 26.79-47.606 13.83-16.249 55.27-43.996 56.186-49.888zM216.756 347.683c.959-5.074-27.489-.014-38.196 4.94-10.707 4.955-21.405 13.388-26.045 24.788-4.64 11.4-5.18 42.67-1.797 43.613 3.383.942 11.086-25.736 22.092-37.96 11.007-12.223 42.988-30.308 43.946-35.381zM141.826 165.628c-6.756-.391 5.08 37.471 13.49 51.172 8.41 13.7 21.329 26.76 36.971 31.029 15.643 4.268 56.29-.64 56.885-5.42.595-4.781-35.426-10.468-53.317-23.264-17.891-12.797-47.272-53.127-54.029-53.517zM630.631 157.418c7.34-.541-4.064 37.216-12.684 50.972s-22.173 26.981-39.036 31.563c-16.864 4.583-61.31.65-62.144-4.07-.834-4.72 38.16-11.17 57.137-24.248 18.978-13.078 49.387-53.677 56.727-54.217z" style="fill: #ff0000;"/>
      <path d="M27.72 62.507c-9.173 4.873-15.1 36.346-12.9 55.066 2.201 18.72 14.162 42.269 26.106 57.253 11.943 14.985 28.342 27.954 45.557 32.655 17.215 4.7 39.775 1.144 57.734-4.45 17.959-5.593 38.366-16.074 50.02-29.11 11.655-13.037 19.226-32.26 19.907-49.108.68-16.848-8.184-37.041-15.82-51.983-7.638-14.941-17.244-28.703-30.002-37.665-12.758-8.961-38.305-20.137-46.547-16.103-8.242 4.033-.663 26.387-2.905 40.304-2.242 13.918-2.38 38.374-10.547 43.202-8.167 4.828-25.026-7.558-38.46-14.235-13.433-6.676-32.968-30.7-42.142-25.826zM713.568 37.613c9.306 2.981 20.506 32.684 21.918 51.472 1.41 18.789-5.243 44.226-13.45 61.26-8.207 17.035-20.869 32.965-35.794 40.948-14.925 7.982-36.264 8.914-53.757 6.947-17.494-1.967-38.127-8.247-51.203-18.748-13.075-10.5-23.54-27.868-27.25-44.257-3.711-16.389.719-37.928 4.985-54.076 4.266-16.149 10.554-31.526 20.611-42.814 10.058-11.287 31.436-27.251 39.733-24.91 8.297 2.34 5.443 25.746 10.048 38.955 4.606 13.209 9.211 37.165 17.586 40.299 8.374 3.134 21.564-12.314 32.66-21.493 11.095-9.18 24.608-36.565 33.913-33.583zM455.522 112.242c5.535-3.697 11.599 35.227 10.31 51.36-1.288 16.135-6.652 33.95-18.042 45.444s-47.77 27.4-50.298 23.522c-2.528-3.877 25.456-26.73 35.128-46.785 9.671-20.054 17.367-69.845 22.902-73.541zM307.6 116.66c-5.994-2.789-8.318 36.795-5.413 52.6 2.904 15.803 10.119 32.628 22.84 42.225 12.72 9.596 51.293 19.6 53.482 15.352 2.189-4.248-28.532-22.48-40.35-40.843-11.818-18.363-24.563-66.544-30.558-69.334z" style="fill: #ff0000;"/>
      <path d="M263.316 22.354c8.903-6.317 16.879-8.362 28.933-8.92 12.055-.557 31.713.557 43.397 5.574 11.684 5.017 20.771 14.865 26.706 24.527 5.936 9.661 9.46 22.48 8.904 33.442-.556 10.962-5.008 23.41-12.241 32.33-7.233 8.918-19.288 16.721-31.157 21.18-11.87 4.46-26.708 7.804-40.062 5.574-13.353-2.23-31.156-10.218-40.058-18.95-8.903-8.733-11.871-22.482-13.355-33.445-1.483-10.962-.37-22.11 4.453-32.329 4.822-10.218 15.578-22.666 24.48-28.983zM494.759 130.201c-9.39 5.567-17.507 6.95-29.567 6.519-12.06-.433-31.56-3.155-42.793-9.113-11.233-5.957-19.483-16.517-24.606-26.633-5.124-10.115-7.586-23.18-6.134-34.059 1.453-10.879 6.91-22.921 14.849-31.216 7.94-8.296 20.593-15.085 32.788-18.556 12.195-3.471 27.256-5.588 40.382-2.272 13.126 3.317 30.214 12.738 38.37 22.17 8.157 9.433 9.99 23.38 10.57 34.426.58 11.047-1.444 22.066-7.087 31.855-5.643 9.79-17.383 21.313-26.772 26.88z" style="fill: #ff0000;"/>
      <path d="M274.121 33.298c6.477-5.031 12.28-6.66 21.05-7.104 8.77-.444 23.073.444 31.573 4.44 8.5 3.995 15.113 11.837 19.43 19.531 4.319 7.694 6.883 17.903 6.478 26.632-.404 8.73-3.643 18.644-8.906 25.746-5.262 7.102-14.032 13.317-22.668 16.868-8.636 3.55-19.431 6.214-29.146 4.439-9.716-1.776-22.668-8.137-29.145-15.092-6.477-6.954-8.637-17.904-9.716-26.633-1.08-8.73-.269-17.608 3.24-25.746 3.508-8.138 11.333-18.05 17.81-23.081zM490.536 117.166c-7.32 4.207-13.655 5.243-23.072 4.893-9.416-.35-24.645-2.45-33.426-6.991-8.781-4.54-15.241-12.569-19.26-20.254-4.018-7.685-5.964-17.603-4.85-25.856 1.115-8.252 5.354-17.38 11.537-23.66 6.184-6.281 16.05-11.41 25.565-14.023 9.515-2.612 21.27-4.191 31.524-1.651 10.254 2.54 23.613 9.72 29.998 16.891 6.385 7.173 7.84 17.759 8.313 26.143.473 8.383-1.087 16.741-5.475 24.16-4.388 7.417-13.533 16.14-20.854 20.348z" style="fill: #fff;"/>
      <path d="M291.88 43.984c4.126-3.088 7.822-4.087 13.409-4.36 5.587-.272 14.696.273 20.11 2.725 5.416 2.452 9.627 7.265 12.377 11.987s4.384 10.987 4.127 16.344c-.258 5.357-2.321 11.442-5.673 15.8-3.352 4.359-8.939 8.173-14.44 10.352-5.5 2.18-12.376 3.814-18.565 2.724-6.188-1.09-14.438-4.994-18.564-9.261-4.125-4.268-5.501-10.988-6.189-16.346-.687-5.357-.17-10.806 2.064-15.8 2.235-4.994 7.22-11.078 11.345-14.165zM451.61 43.984c4.126-3.088 7.822-4.087 13.409-4.36 5.586-.272 14.696.273 20.11 2.725 5.415 2.452 9.627 7.265 12.377 11.987s4.384 10.987 4.126 16.344c-.258 5.357-2.32 11.442-5.673 15.8-3.352 4.359-8.938 8.173-14.439 10.352-5.5 2.18-12.377 3.814-18.565 2.724-6.188-1.09-14.439-4.994-18.564-9.261-4.126-4.268-5.501-10.988-6.189-16.346-.687-5.357-.171-10.806 2.064-15.8 2.234-4.994 7.219-11.078 11.344-14.165z" style="fill: #000;"/>
      <path d="M312.611 49.495c1.861-1.282 3.529-1.697 6.05-1.81 2.52-.113 6.63.113 9.072 1.131 2.443 1.018 4.343 3.017 5.584 4.977 1.241 1.96 1.978 4.562 1.862 6.786-.117 2.224-1.047 4.75-2.56 6.56-1.512 1.81-4.032 3.393-6.514 4.298-2.482.905-5.584 1.584-8.376 1.131-2.792-.452-6.514-2.073-8.375-3.845-1.861-1.772-2.482-4.562-2.792-6.787-.31-2.224-.078-4.486.93-6.56 1.009-2.073 3.258-4.599 5.119-5.88zM472.34 49.503c1.862-1.282 3.53-1.697 6.05-1.81 2.52-.113 6.63.113 9.073 1.131 2.443 1.018 4.343 3.016 5.584 4.977 1.24 1.96 1.978 4.562 1.861 6.786-.116 2.224-1.047 4.75-2.559 6.56-1.512 1.81-4.033 3.393-6.514 4.298-2.482.905-5.584 1.583-8.376 1.131-2.792-.452-6.514-2.073-8.376-3.845-1.86-1.772-2.481-4.562-2.792-6.787-.31-2.224-.077-4.486.931-6.56 1.009-2.073 3.257-4.6 5.119-5.881z" style="fill: #fff;"/>
      <path d="M272.05 261.265c10.746 6.94 42.313 33.136 64.478 41.643 22.164 8.508 45.449 11.865 68.509 9.402 23.06-2.463 54.179-15 69.85-24.179 15.672-9.179 20.149-25.746 24.179-30.895" style="fill: #000; fill-opacity: 0;"/>
      <path d="M272.05 261.265c10.746 6.94 42.313 33.136 64.478 41.643 22.164 8.508 45.449 11.865 68.509 9.402 23.06-2.463 54.179-15 69.85-24.179 15.672-9.179 20.149-25.746 24.179-30.895" style="stroke: #000; stroke-width: 8; stroke-linecap: round; stroke-linejoin: round;"/>
    </g>
  </g>
</svg>